<?xml version="1.0" encoding="utf-8"?>
<!-- Generator: Adobe Illustrator 23.1.0, SVG Export Plug-In . SVG Version: 6.00 Build 0)  -->
<svg version="1.1" id="Layer_1" xmlns="http://www.w3.org/2000/svg" xmlns:xlink="http://www.w3.org/1999/xlink" x="0px" y="0px"
	 viewBox="0 0 178 55" style="enable-background:new 0 0 178 55;" xml:space="preserve">
<style type="text/css">
	.st0{fill-rule:evenodd;clip-rule:evenodd;fill:#0C131F;}
</style>
<path class="st0" d="M81.1,19.6c0,8.9-7.3,16.1-16.2,16s-16.1-7.3-16-16.2c0-8.9,7.2-16,16.1-16C73.9,3.4,81.1,10.7,81.1,19.6
	C81.1,19.6,81.1,19.6,81.1,19.6z M129.4,3.4l-16.1,32.3L97.2,3.4L129.4,3.4L129.4,3.4z M145.5,35.8l16.1-32.3l16.1,32.3H145.5
	L145.5,35.8z M23.1,22.8c5.4,0,9.7-4.3,9.7-9.7c0-5.4-4.3-9.7-9.7-9.7H0.6v32.3h32.2L19.9,22.8H23.1z"/>
</svg>
